<svg width="64" height="64" viewBox="0 0 64 64" fill="none" xmlns="http://www.w3.org/2000/svg">
<rect width="64" height="64" rx="10" fill="#00BA63"/>
<path d="M18.2422 23.2113C16.1863 23.2113 14.4922 24.9055 14.4922 26.9613V45.7895C14.4922 47.8454 16.1863 49.5395 18.2422 49.5395H45.7422C47.7981 49.5395 49.4922 47.8454 49.4922 45.7895V26.9613C49.4922 26.3095 49.5828 25.639 49.3311 24.8227C49.2052 24.4145 48.9313 23.9388 48.4839 23.6288C48.0365 23.3188 47.5062 23.2113 46.9922 23.2113H41.9922C41.3018 23.2113 40.7422 23.771 40.7422 24.4613C40.7422 25.1517 41.3018 25.7113 41.9922 25.7113H46.9458C42.4889 29.6057 37.9167 33.4807 33.4009 37.3471C32.5088 38.1335 31.4757 38.1335 30.5836 37.3471L17.3973 25.7234C18.9256 25.7234 20.4814 25.7109 21.9923 25.7109C22.6826 25.7109 23.2423 25.1513 23.2423 24.4609C23.2423 23.7706 22.6826 23.2109 21.9923 23.2109L18.2422 23.2113ZM16.9922 28.7021L28.9282 39.2221C30.6791 40.7653 33.3053 40.7653 35.0562 39.2221L46.9922 29.0023V45.7895C46.9922 46.5036 46.4563 47.0395 45.7422 47.0395H18.2422C17.5281 47.0395 16.9922 46.5036 16.9922 45.7895V28.7021Z" fill="#2D394B"/>
<path d="M31.9918 14.4609C31.3015 14.4609 30.7418 15.0206 30.7418 15.7109V26.6606L27.9025 23.6431C27.3145 23.0477 26.6764 23.1501 26.1349 23.5893C25.6317 24.0625 25.6077 24.8541 26.0812 25.3569L31.0812 30.6694C31.5749 31.1943 32.4088 31.1943 32.9025 30.6694L37.9025 25.3569C38.376 24.8541 38.3519 24.0625 37.8487 23.5893C37.3459 23.1158 36.5543 23.1399 36.0812 23.6431L33.2418 26.6606V15.7109C33.2418 15.0206 32.6822 14.4609 31.9918 14.4609Z" fill="#2D394B"/>
</svg>
