<svg width="24" height="24" viewBox="0 0 24 24" fill="none" xmlns="http://www.w3.org/2000/svg">
<path fill-rule="evenodd" clip-rule="evenodd" d="M16.2855 2.00012H19.5521C20.9036 2.00012 22 3.10602 22 4.4703V7.76423C22 9.12748 20.9036 10.2344 19.5521 10.2344H16.2855C14.9329 10.2344 13.8365 9.12748 13.8365 7.76423V4.4703C13.8365 3.10602 14.9329 2.00012 16.2855 2.00012Z" stroke="currentColor" stroke-width="1.5" stroke-linecap="round" stroke-linejoin="round"/>
<path fill-rule="evenodd" clip-rule="evenodd" d="M4.44892 2.00012H7.71449C9.06703 2.00012 10.1634 3.10602 10.1634 4.4703V7.76423C10.1634 9.12748 9.06703 10.2344 7.71449 10.2344H4.44892C3.09638 10.2344 2 9.12748 2 7.76423V4.4703C2 3.10602 3.09638 2.00012 4.44892 2.00012Z" stroke="currentColor" stroke-width="1.5" stroke-linecap="round" stroke-linejoin="round"/>
<path fill-rule="evenodd" clip-rule="evenodd" d="M4.44892 13.7659H7.71449C9.06703 13.7659 10.1634 14.8718 10.1634 16.2371V19.53C10.1634 20.8943 9.06703 22.0002 7.71449 22.0002H4.44892C3.09638 22.0002 2 20.8943 2 19.53V16.2371C2 14.8718 3.09638 13.7659 4.44892 13.7659Z" stroke="currentColor" stroke-width="1.5" stroke-linecap="round" stroke-linejoin="round"/>
<path fill-rule="evenodd" clip-rule="evenodd" d="M16.2855 13.7659H19.5521C20.9036 13.7659 22 14.8718 22 16.2371V19.53C22 20.8943 20.9036 22.0002 19.5521 22.0002H16.2855C14.9329 22.0002 13.8365 20.8943 13.8365 19.53V16.2371C13.8365 14.8718 14.9329 13.7659 16.2855 13.7659Z" stroke="currentColor" stroke-width="1.5" stroke-linecap="round" stroke-linejoin="round"/>
</svg>
