<svg width="20" height="20" viewBox="0 0 20 20" fill="none" xmlns="http://www.w3.org/2000/svg">
<path fill-rule="evenodd" clip-rule="evenodd" d="M5.97473 5.14172C6.16369 4.95276 6.47006 4.95276 6.65903 5.14172L10.833 9.3157L15.007 5.14172C15.196 4.95276 15.5023 4.95276 15.6913 5.14172C15.8802 5.33069 15.8802 5.63706 15.6913 5.82602L11.5173 10L15.6913 14.174C15.8802 14.3629 15.8802 14.6693 15.6913 14.8583C15.5023 15.0472 15.196 15.0472 15.007 14.8583L10.833 10.6843L6.65903 14.8583C6.47006 15.0472 6.16369 15.0472 5.97473 14.8583C5.78577 14.6693 5.78577 14.3629 5.97473 14.174L10.1487 10L5.97473 5.82602C5.78577 5.63706 5.78577 5.33069 5.97473 5.14172Z" fill="currentColor" stroke="currentColor" stroke-linecap="round" stroke-linejoin="round"/>
</svg>
