<svg width="120" height="120" viewBox="0 0 120 120" fill="none" xmlns="http://www.w3.org/2000/svg">
<path d="M67.3302 60.0006L98.4812 28.8486C100.508 26.8223 100.508 23.546 98.4812 21.5197C96.4549 19.4934 93.1786 19.4934 91.1523 21.5197L60.0004 52.6717L28.8493 21.5197C26.8221 19.4934 23.5468 19.4934 21.5204 21.5197C19.4932 23.546 19.4932 26.8223 21.5204 28.8486L52.6715 60.0006L21.5204 91.1526C19.4932 93.1789 19.4932 96.4551 21.5204 98.4815C22.5303 99.4922 23.8581 100 25.1849 100C26.5117 100 27.8385 99.4922 28.8493 98.4815L60.0004 67.3295L91.1523 98.4815C92.1631 99.4922 93.49 100 94.8168 100C96.1436 100 97.4704 99.4922 98.4812 98.4815C100.508 96.4551 100.508 93.1789 98.4812 91.1526L67.3302 60.0006Z" fill="currentColor"/>
</svg>
