<svg width="20" height="20" viewBox="0 0 20 20" fill="none" xmlns="http://www.w3.org/2000/svg">
<path fill-rule="evenodd" clip-rule="evenodd" d="M6.3915 1.66602H13.6165C16.4415 1.66602 18.3332 3.64935 18.3332 6.59935V13.4085C18.3332 16.3502 16.4415 18.3327 13.6165 18.3327H6.3915C3.5665 18.3327 1.6665 16.3502 1.6665 13.4085V6.59935C1.6665 3.64935 3.5665 1.66602 6.3915 1.66602ZM12.5082 12.4993C12.7915 12.2168 12.7915 11.7585 12.5082 11.4752L11.0248 9.99185L12.5082 8.50768C12.7915 8.22518 12.7915 7.75852 12.5082 7.47518C12.2248 7.19102 11.7665 7.19102 11.4748 7.47518L9.99984 8.95768L8.5165 7.47518C8.22484 7.19102 7.7665 7.19102 7.48317 7.47518C7.19984 7.75852 7.19984 8.22518 7.48317 8.50768L8.9665 9.99185L7.48317 11.4668C7.19984 11.7585 7.19984 12.2168 7.48317 12.4993C7.62484 12.641 7.8165 12.7168 7.99984 12.7168C8.1915 12.7168 8.37484 12.641 8.5165 12.4993L9.99984 11.0252L11.4832 12.4993C11.6248 12.6502 11.8082 12.7168 11.9915 12.7168C12.1832 12.7168 12.3665 12.641 12.5082 12.4993Z" fill="currentColor"/>
</svg>
