<svg width="16" height="16" viewBox="0 0 16 16" fill="none" xmlns="http://www.w3.org/2000/svg">
<path d="M11.3326 7.52385V12.7619C11.3326 13.7824 10.5092 14.6667 9.4112 14.6667H3.92142C2.89209 14.6667 2 13.8504 2 12.7619V5.27895C2 4.25854 2.82347 3.37419 3.92142 3.37419H7.14667C7.62702 3.37419 8.10738 3.57827 8.51911 3.91841L10.7836 6.16331C11.1268 6.57147 11.3326 7.04766 11.3326 7.52385Z" fill="currentColor"/>
<path d="M12.8423 11.9456C12.5678 11.9456 12.2933 11.7415 12.2933 11.4014V6.50344C12.2933 6.29936 12.2247 6.09528 12.0188 5.8912L8.72498 2.62589C8.58773 2.48984 8.31325 2.35378 8.10738 2.35378H5.29387C5.01938 2.42181 4.74489 2.1497 4.74489 1.87759C4.74489 1.60548 5.01938 1.33337 5.29387 1.33337H8.176C8.65636 1.33337 9.13671 1.53746 9.47982 1.87759L12.7737 5.1429C13.1168 5.48303 13.3227 5.95923 13.3227 6.43542V11.4014C13.3913 11.6735 13.1168 11.9456 12.8423 11.9456Z" fill="currentColor"/>
</svg>
