<svg width="20" height="16" viewBox="0 0 20 16" fill="none" xmlns="http://www.w3.org/2000/svg">
<path d="M19.1837 8.20513H13.9796L11.6327 10.5641C11.4286 10.7692 11.1224 10.9744 10.9184 11.0769C10.6122 11.1795 10.3061 11.2821 10 11.2821C9.69388 11.2821 9.38776 11.1795 9.08163 11.0769C8.77551 10.9744 8.57143 10.7692 8.36735 10.5641L6.02041 8.20513H0.816327C0.408163 8.20513 0 8.51282 0 9.02564V12.8205C0 14.2564 1.12245 15.4872 2.55102 15.5897C4.69388 15.7949 7.65306 16 10 16C12.3469 16 15.3061 15.7949 17.449 15.5897C18.8776 15.4872 20 14.2564 20 12.8205V9.02564C20 8.61539 19.5918 8.20513 19.1837 8.20513Z" fill="currentColor"/>
<path d="M8.16327 8.20513L9.4898 9.53846C9.59184 9.64103 9.69388 9.64103 9.69388 9.74359C9.79592 9.74359 9.89796 9.84616 10 9.84616C10.102 9.84616 10.2041 9.84616 10.3061 9.74359C10.4082 9.74359 10.5102 9.64103 10.5102 9.53846L13.5714 6.46154C13.8776 6.15385 13.8776 5.64103 13.5714 5.33333C13.3673 5.23077 13.2653 5.12821 13.0612 5.12821C12.8571 5.12821 12.6531 5.23077 12.551 5.33333L10.8163 7.07692V0.820513C10.8163 0.410257 10.5102 0 10 0C9.4898 0 9.18367 0.410257 9.18367 0.820513V7.17949L7.44898 5.4359C7.34694 5.23077 7.14286 5.12821 6.93878 5.12821C6.73469 5.12821 6.53061 5.23077 6.42857 5.4359C6.12245 5.74359 6.12245 6.25641 6.42857 6.5641L8.16327 8.20513Z" fill="currentColor"/>
</svg>
