<svg width="24" height="24" viewBox="0 0 24 24" fill="none" xmlns="http://www.w3.org/2000/svg">
<path d="M9.15722 20.7715V17.7048C9.1572 16.9247 9.79312 16.2909 10.581 16.2857H13.4671C14.2587 16.2857 14.9005 16.921 14.9005 17.7048V17.7048V20.781C14.9003 21.4433 15.4343 21.9846 16.103 22.0001H18.0271C19.9451 22.0001 21.5 20.4608 21.5 18.5619V18.5619V9.83793C21.4898 9.09092 21.1355 8.38944 20.538 7.93312L13.9577 2.68539C12.8049 1.77166 11.1662 1.77166 10.0134 2.68539L3.46203 7.94265C2.86226 8.39711 2.50739 9.09976 2.5 9.84745V18.5619C2.5 20.4608 4.05488 22.0001 5.97291 22.0001H7.89696C8.58235 22.0001 9.13797 21.45 9.13797 20.7715V20.7715" stroke="currentColor" stroke-width="1.5" stroke-linecap="round" stroke-linejoin="round"/>
</svg>
