<svg width="24" height="24" viewBox="0 0 24 24" fill="none" xmlns="http://www.w3.org/2000/svg">
<path d="M9.13478 20.7734V17.7157C9.13478 16.9352 9.77217 16.3024 10.5584 16.3024H13.4326C13.8102 16.3024 14.1723 16.4513 14.4393 16.7163C14.7063 16.9814 14.8563 17.3409 14.8563 17.7157V20.7734C14.8539 21.0979 14.9821 21.41 15.2124 21.6403C15.4427 21.8706 15.7561 22.0001 16.0829 22.0001H18.0438C18.9596 22.0024 19.8388 21.6429 20.4872 21.0009C21.1356 20.3589 21.5 19.4871 21.5 18.5779V9.86695C21.5 9.13255 21.1721 8.43593 20.6046 7.96476L13.934 2.67596C12.7737 1.74865 11.1111 1.77859 9.98539 2.74707L3.46701 7.96476C2.87274 8.42204 2.51755 9.12073 2.5 9.86695V18.569C2.5 20.4639 4.04738 22.0001 5.95617 22.0001H7.87229C8.55123 22.0001 9.103 21.4563 9.10792 20.7823L9.13478 20.7734Z" fill="currentColor"/>
</svg>
