<svg width="24" height="24" viewBox="0 0 24 24" fill="none" xmlns="http://www.w3.org/2000/svg">
<path fill-rule="evenodd" clip-rule="evenodd" d="M21.21 7.89998V16.05C21.21 19.07 19.32 21.2 16.3 21.2H7.65C4.63 21.2 2.75 19.07 2.75 16.05V7.89998C2.75 4.87998 4.64 2.75098 7.65 2.75098H16.3C19.32 2.75098 21.21 4.87998 21.21 7.89998Z" stroke="currentColor" stroke-width="1.5" stroke-linecap="round" stroke-linejoin="round"/>
<path d="M5.28125 16.4323L6.81025 14.8193C7.36125 14.2373 8.28625 14.2343 8.84225 14.8113L9.72725 15.7143C10.3243 16.3233 11.3173 16.2793 11.8583 15.6203L14.0872 12.9093C14.7272 12.1303 15.9013 12.0823 16.6023 12.8053L18.6783 14.9473" stroke="currentColor" stroke-width="1.5" stroke-linecap="round" stroke-linejoin="round"/>
<path fill-rule="evenodd" clip-rule="evenodd" d="M10.3135 9.13437C10.3135 10.1024 9.52752 10.8884 8.55952 10.8884C7.59152 10.8884 6.80652 10.1024 6.80652 9.13437C6.80652 8.16637 7.59152 7.38037 8.55952 7.38037C9.52752 7.38037 10.3135 8.16637 10.3135 9.13437Z" stroke="currentColor" stroke-width="1.5" stroke-linecap="round" stroke-linejoin="round"/>
</svg>
