<svg width="24" height="24" viewBox="0 0 24 24" fill="none" xmlns="http://www.w3.org/2000/svg">
<path fill-rule="evenodd" clip-rule="evenodd" d="M7.66618 22.0001H16.3328C19.7231 22.0001 22 19.622 22 16.0834V7.91681C22 4.3782 19.7231 2.00009 16.3338 2.00009H7.66618C4.2769 2.00009 2 4.3782 2 7.91681V16.0834C2 19.622 4.2769 22.0001 7.66618 22.0001ZM8.49886 11.0001C7.12021 11.0001 6 9.87836 6 8.50009C6 7.12182 7.12021 6.00009 8.49886 6.00009C9.8765 6.00009 10.9977 7.12182 10.9977 8.50009C10.9977 9.87836 9.8765 11.0001 8.49886 11.0001ZM19.8208 14.934C20.1557 15.7927 19.9817 16.8247 19.6237 17.675C19.1994 18.6864 18.3869 19.4521 17.3632 19.7865C16.9087 19.9351 16.432 20.0001 15.9564 20.0001H7.52864C6.68999 20.0001 5.94788 19.7989 5.3395 19.4242C4.95839 19.1889 4.89102 18.6461 5.17358 18.2942C5.6462 17.706 6.11279 17.1157 6.5834 16.5202C7.48038 15.3809 8.08473 15.0507 8.75645 15.3406C9.02896 15.4604 9.30248 15.6399 9.58404 15.8298C10.3342 16.3396 11.377 17.0403 12.7506 16.2798C13.6906 15.7533 14.2358 14.8502 14.7106 14.0638L14.7185 14.0507C14.7522 13.9955 14.7855 13.9403 14.8187 13.8853C14.9783 13.6213 15.1357 13.3608 15.3138 13.1208C15.5371 12.8205 16.3646 11.8814 17.4366 12.5501C18.1194 12.9712 18.6936 13.5409 19.308 14.1508C19.5423 14.384 19.7092 14.6492 19.8208 14.934Z" fill="currentColor"/>
</svg>
