<svg width="57" height="56" viewBox="0 0 57 56" fill="none" xmlns="http://www.w3.org/2000/svg">
<rect x="0.5" width="56" height="56" rx="12" fill="#20C997" fill-opacity="0.12"/>
<path d="M28.5 18C22.9898 18 18.5 22.4898 18.5 28C18.5 33.5102 22.9898 38 28.5 38C34.0102 38 38.5 33.5102 38.5 28C38.5 22.4898 34.0102 18 28.5 18ZM32.0714 26.4694L27.9898 30.551C27.7857 30.6531 27.6837 30.7551 27.4796 30.7551C27.2755 30.7551 27.0714 30.6531 26.9694 30.551L24.9286 28.5102C24.6224 28.2041 24.6224 27.6939 24.9286 27.3878C25.2347 27.0816 25.7449 27.0816 26.051 27.3878L27.5816 28.9184L31.1531 25.3469C31.4592 25.0408 31.9694 25.0408 32.2755 25.3469C32.3776 25.7551 32.3776 26.1633 32.0714 26.4694Z" fill="#20C997"/>
</svg>
