<svg width="57" height="56" viewBox="0 0 57 56" fill="none" xmlns="http://www.w3.org/2000/svg">
<rect x="0.5" width="56" height="56" rx="12" fill="#FF4F50" fill-opacity="0.12"/>
<path fill-rule="evenodd" clip-rule="evenodd" d="M39.5495 18.9906C40.0682 18.9906 40.5 19.4212 40.5 19.9692V20.4759C40.5 21.0106 40.0682 21.4546 39.5495 21.4546H17.4518C16.9318 21.4546 16.5 21.0106 16.5 20.4759V19.9692C16.5 19.4212 16.9318 18.9906 17.4518 18.9906H21.3394C22.1291 18.9906 22.8164 18.4293 22.9941 17.6373L23.1976 16.7279C23.514 15.4893 24.5553 14.6666 25.747 14.6666H31.253C32.4317 14.6666 33.4847 15.4893 33.7894 16.6626L34.0072 17.6359C34.1836 18.4293 34.8709 18.9906 35.6619 18.9906H39.5495ZM37.5744 37.512C37.9803 33.7294 38.6909 24.7428 38.6909 24.6521C38.7169 24.3775 38.6274 24.1175 38.4497 23.9081C38.2591 23.7121 38.0179 23.5961 37.7521 23.5961H19.258C18.9909 23.5961 18.7367 23.7121 18.5604 23.9081C18.3814 24.1175 18.2933 24.3775 18.3062 24.6521C18.3086 24.6688 18.3341 24.9853 18.3767 25.5146C18.5661 27.8656 19.0936 34.4135 19.4344 37.512C19.6756 39.7946 21.1733 41.2293 23.3427 41.2813C25.0168 41.32 26.7415 41.3333 28.5051 41.3333C30.1662 41.3333 31.8532 41.32 33.5792 41.2813C35.8238 41.2426 37.3203 39.8333 37.5744 37.512Z" fill="#FF4F50"/>
</svg>
