<svg width="57" height="56" viewBox="0 0 57 56" fill="none" xmlns="http://www.w3.org/2000/svg">
<rect x="0.5" width="56" height="56" rx="12" fill="#FFF4EC"/>
<path fill-rule="evenodd" clip-rule="evenodd" d="M31.8031 17.9228L41.4948 34.743C41.7081 35.245 41.8014 35.6533 41.8281 36.0774C41.8814 37.0683 41.5348 38.0314 40.8549 38.7726C40.175 39.5112 39.2552 39.9472 38.2553 40H18.7386C18.3254 39.9749 17.9121 39.8811 17.5255 39.7358C15.5925 38.9563 14.6593 36.7631 15.4458 34.8619L25.2042 17.9109C25.5375 17.315 26.0441 16.8011 26.6706 16.4708C28.4836 15.4654 30.7899 16.126 31.8031 17.9228ZM29.6568 29.0076C29.6568 29.6418 29.1369 30.1716 28.497 30.1716C27.8571 30.1716 27.3238 29.6418 27.3238 29.0076V25.27C27.3238 24.6345 27.8571 24.1205 28.497 24.1205C29.1369 24.1205 29.6568 24.6345 29.6568 25.27V29.0076ZM28.497 34.6901C27.8571 34.6901 27.3238 34.1603 27.3238 33.5275C27.3238 32.892 27.8571 32.3635 28.497 32.3635C29.1369 32.3635 29.6568 32.8801 29.6568 33.5129C29.6568 34.1603 29.1369 34.6901 28.497 34.6901Z" fill="#FF6C02"/>
</svg>
