<svg width="16" height="16" viewBox="0 0 16 16" fill="none" xmlns="http://www.w3.org/2000/svg">
<path d="M14.9111 7.78472L13.0851 5.95865C12.998 5.8716 12.8665 5.84604 12.7533 5.89292C12.6395 5.9398 12.5652 6.05119 12.5652 6.17413V7.08716H8.9131V3.43504H9.82614C9.94908 3.43504 10.0605 3.36077 10.1073 3.24695C10.1542 3.13314 10.128 3.00226 10.0416 2.91521L8.21555 1.08914C8.09685 0.970449 7.90389 0.970449 7.7852 1.08914L5.95913 2.91521C5.87208 3.00286 5.84592 3.13311 5.89279 3.24695C5.93967 3.36077 6.05106 3.43504 6.17401 3.43504H7.08704V7.08716H3.43491V6.17413C3.43491 6.05119 3.36064 5.9398 3.24683 5.89292C3.13484 5.84544 3.00274 5.8716 2.91508 5.95865L1.08902 7.78472C0.970326 7.90341 0.970326 8.09638 1.08902 8.21507L2.91508 10.0411C3.00274 10.1288 3.13421 10.1556 3.24683 10.1069C3.36064 10.0606 3.43491 9.94923 3.43491 9.82626V8.91323H7.08704V12.5654H6.17401C6.05106 12.5654 5.93967 12.6396 5.89279 12.7534C5.84592 12.8673 5.87211 12.9981 5.95853 13.0852L7.7846 14.9112C7.84426 14.9703 7.92215 15.0001 8.00007 15.0001C8.07799 15.0001 8.15589 14.9703 8.21555 14.9112L10.0416 13.0852C10.1287 12.9981 10.1548 12.8673 10.1073 12.7534C10.0599 12.6396 9.94908 12.5654 9.82614 12.5654H8.9131V8.91323H12.5652V9.82626C12.5652 9.9492 12.6395 10.0606 12.7533 10.1075C12.8659 10.1555 12.998 10.1288 13.0851 10.0417L14.9111 8.21567C15.0298 8.09638 15.0298 7.90404 14.9111 7.78472Z" fill="currentColor"/>
</svg>
