<svg width="18" height="20" viewBox="0 0 18 20" fill="none" xmlns="http://www.w3.org/2000/svg">
<path opacity="0.4" d="M15.8088 7.021C15.3573 7.021 14.7592 7.011 14.0146 7.011C12.1987 7.011 10.7055 5.508 10.7055 3.675V0.459C10.7055 0.206 10.5026 0 10.253 0H4.96363C2.49517 0 0.5 2.026 0.5 4.509V15.284C0.5 17.889 2.59022 20 5.16958 20H13.0453C15.5058 20 17.5 17.987 17.5 15.502V7.471C17.5 7.217 17.298 7.012 17.0465 7.013C16.6247 7.016 16.1168 7.021 15.8088 7.021" fill="currentColor"/>
<path opacity="0.4" d="M13.0842 0.56737C12.7852 0.25637 12.2632 0.47037 12.2632 0.90137V3.53837C12.2632 4.64437 13.1742 5.55437 14.2792 5.55437C14.9772 5.56237 15.9452 5.56437 16.7672 5.56237C17.1882 5.56137 17.4022 5.05837 17.1102 4.75437C16.0552 3.65737 14.1662 1.69137 13.0842 0.56737Z" fill="currentColor"/>
<path d="M11.3672 10.2364H9.6392V8.5094C9.6392 8.0984 9.3062 7.7644 8.8952 7.7644C8.4842 7.7644 8.1502 8.0984 8.1502 8.5094V10.2364H6.4232C6.0122 10.2364 5.6792 10.5704 5.6792 10.9814C5.6792 11.3924 6.0122 11.7264 6.4232 11.7264H8.1502V13.4524C8.1502 13.8634 8.4842 14.1974 8.8952 14.1974C9.3062 14.1974 9.6392 13.8634 9.6392 13.4524V11.7264H11.3672C11.7782 11.7264 12.1122 11.3924 12.1122 10.9814C12.1122 10.5704 11.7782 10.2364 11.3672 10.2364Z" fill="currentColor"/>
</svg>
