<!-- Generated by IcoMoon.io -->
<svg version="1.1" xmlns="http://www.w3.org/2000/svg" width="1024" height="1024" viewBox="0 0 1024 1024">
<title></title>
<g id="icomoon-ignore">
</g>
<path fill="currentColor" d="M85.333 512.247c0-235.501 191.506-426.914 426.667-426.914s426.667 191.413 426.667 426.914c0 235.004-191.505 426.419-426.667 426.419s-426.667-191.415-426.667-426.419zM668.501 555.426c4.527-4.527 10.295-11.524 11.529-13.171 6.592-8.644 9.886-19.345 9.886-30.007 0-11.981-3.708-23.095-10.709-32.149-0.572-0.576-1.698-1.796-3.162-3.392-2.739-2.978-6.669-7.262-10.428-11.017-33.771-36.224-121.907-95.5-168.030-113.612-7.002-2.84-24.713-9.056-34.185-9.468-9.062 0-17.711 2.058-25.946 6.175-10.295 5.763-18.533 14.819-23.063 25.521-2.883 7.409-7.413 29.638-7.413 30.050-4.53 24.286-7.001 63.804-7.001 107.439 0 41.617 2.471 79.445 6.178 104.145 0.102 0.102 0.456 1.869 1.007 4.612 1.673 8.341 5.158 25.724 8.878 32.845 9.060 17.289 26.77 27.994 45.714 27.994h1.647c12.356-0.414 38.302-11.115 38.302-11.524 43.657-18.116 129.728-74.509 164.322-111.97l2.475-2.47z"></path>
</svg>
