<svg width="40" height="40" viewBox="0 0 40 40" fill="none" xmlns="http://www.w3.org/2000/svg">
<path fill-rule="evenodd" clip-rule="evenodd" d="M12.2168 3.3335H27.7668C33.4335 3.3335 36.6668 6.5335 36.6668 12.2168V27.7835C36.6668 33.4335 33.4502 36.6668 27.7835 36.6668H12.2168C6.5335 36.6668 3.3335 33.4335 3.3335 27.7835V12.2168C3.3335 6.5335 6.5335 3.3335 12.2168 3.3335ZM21.3668 21.3835H26.1002C26.8668 21.3668 27.4835 20.7502 27.4835 19.9835C27.4835 19.2168 26.8668 18.6002 26.1002 18.6002H21.3668V13.9002C21.3668 13.1335 20.7502 12.5168 19.9835 12.5168C19.2168 12.5168 18.6002 13.1335 18.6002 13.9002V18.6002H13.8835C13.5168 18.6002 13.1668 18.7502 12.9002 19.0002C12.6502 19.2668 12.5002 19.6152 12.5002 19.9835C12.5002 20.7502 13.1168 21.3668 13.8835 21.3835H18.6002V26.1002C18.6002 26.8668 19.2168 27.4835 19.9835 27.4835C20.7502 27.4835 21.3668 26.8668 21.3668 26.1002V21.3835Z" fill="currentColor"/>
</svg>
