<!-- Generated by IcoMoon.io -->
<svg version="1.1" xmlns="http://www.w3.org/2000/svg" width="1024" height="1024" viewBox="0 0 1024 1024">
<title></title>
<g id="icomoon-ignore">
</g>
<path fill="currentColor" d="M549.852 37.828c-187.021 0-352.069 107.915-428.925 271.506l-53.463-111.011-67.464 32.495 111.030 230.471 230.471-111.036-32.501-67.451-120.062 57.828c64.858-137.377 203.658-227.922 360.914-227.922 220.171 0 399.281 179.122 399.281 399.29s-179.11 399.297-399.281 399.297c-129.642 0-251.713-63.334-326.524-169.414l-61.204 43.168c88.854 125.933 233.79 201.12 387.727 201.12 261.438 0 474.148-212.71 474.148-474.17s-212.71-474.171-474.148-474.171z"></path>
</svg>
