<svg width="20" height="20" viewBox="0 0 20 20" fill="none" xmlns="http://www.w3.org/2000/svg">
<path d="M17.5 9.99996C17.5026 11.6794 16.9414 13.3111 15.9064 14.6337C14.8714 15.9563 13.4225 16.8932 11.7916 17.2944C10.1608 17.6956 8.44255 17.5378 6.91207 16.8464C5.38159 16.1549 4.12747 14.9698 3.35062 13.4808C2.57377 11.9918 2.31915 10.2852 2.62754 8.63434C2.93593 6.98347 3.78949 5.48386 5.05148 4.37577C6.31347 3.26767 7.91086 2.6152 9.58775 2.52289C11.2646 2.43057 12.924 2.90375 14.3 3.86663L14.2083 3.59996C14.1376 3.38447 14.1554 3.14971 14.2577 2.94733C14.3601 2.74495 14.5387 2.59152 14.7542 2.52079C14.9697 2.45007 15.2044 2.46784 15.4068 2.57021C15.6092 2.67257 15.7626 2.85114 15.8333 3.06663L16.6667 5.56663C16.708 5.69195 16.719 5.82529 16.6987 5.95568C16.6784 6.08607 16.6274 6.20978 16.55 6.31663C16.4693 6.43023 16.3615 6.52179 16.2363 6.58293C16.1111 6.64407 15.9725 6.67285 15.8333 6.66663H13.3333C13.1123 6.66663 12.9004 6.57883 12.7441 6.42255C12.5878 6.26627 12.5 6.05431 12.5 5.83329C12.503 5.65691 12.5619 5.48603 12.6682 5.34526C12.7746 5.20449 12.9228 5.10109 13.0917 5.04996C11.9955 4.36482 10.7027 4.06322 9.41647 4.19254C8.13024 4.32185 6.9234 4.87476 5.98551 5.7644C5.04762 6.65404 4.43181 7.83003 4.2348 9.10764C4.0378 10.3853 4.27077 11.6921 4.89711 12.823C5.52345 13.9538 6.50768 14.8446 7.69522 15.3553C8.88275 15.8661 10.2063 15.9679 11.458 15.6448C12.7097 15.3217 13.8186 14.592 14.6105 13.5703C15.4025 12.5485 15.8326 11.2927 15.8333 9.99996C15.8333 9.77894 15.9211 9.56698 16.0774 9.4107C16.2337 9.25442 16.4457 9.16663 16.6667 9.16663C16.8877 9.16663 17.0996 9.25442 17.2559 9.4107C17.4122 9.56698 17.5 9.77894 17.5 9.99996Z" fill="currentColor"/>
</svg>
