<!-- Generated by IcoMoon.io -->
<svg version="1.1" xmlns="http://www.w3.org/2000/svg" width="1024" height="1024" viewBox="0 0 1024 1024">
<title></title>
<g id="icomoon-ignore">
</g>
<path fill="currentColor" d="M491.187 189.398c-166.73 0-301.789 134.989-301.789 301.379s135.059 301.38 301.789 301.38c83.183 0 158.413-33.54 213.047-87.923 54.882-54.63 88.742-130.052 88.742-213.457 0-166.39-135.061-301.379-301.79-301.379zM85.333 490.778c0-223.977 181.763-405.444 405.854-405.444s405.854 181.467 405.854 405.444c0 93.41-31.667 179.494-84.779 248.026l111.142 111.019c20.331 20.305 20.352 53.252 0.043 73.583s-53.252 20.352-73.583 0.043l-111.33-111.202c-68.463 52.634-154.278 83.977-247.347 83.977-224.090 0-405.854-181.466-405.854-405.444z"></path>
</svg>
