<svg width="24" height="24" viewBox="0 0 24 24" fill="none" xmlns="http://www.w3.org/2000/svg">
<path fill-rule="evenodd" clip-rule="evenodd" d="M20.4022 13.5802C20.7599 13.7702 21.0358 14.0702 21.23 14.3702C21.6081 14.9902 21.5775 15.7502 21.2096 16.4202L20.4942 17.6202C20.1161 18.2602 19.4109 18.6602 18.6853 18.6602C18.3277 18.6602 17.9291 18.5602 17.6021 18.3602C17.3364 18.1902 17.0298 18.1302 16.7027 18.1302C15.691 18.1302 14.8428 18.9602 14.8121 19.9502C14.8121 21.1002 13.8719 22.0002 12.6967 22.0002H11.3068C10.1213 22.0002 9.18113 21.1002 9.18113 19.9502C9.16069 18.9602 8.31247 18.1302 7.30073 18.1302C6.96348 18.1302 6.6569 18.1902 6.40141 18.3602C6.07438 18.5602 5.6656 18.6602 5.31813 18.6602C4.58232 18.6602 3.87717 18.2602 3.49905 17.6202L2.7939 16.4202C2.41577 15.7702 2.39533 14.9902 2.77346 14.3702C2.93697 14.0702 3.24356 13.7702 3.59102 13.5802C3.87717 13.4402 4.06112 13.2102 4.23486 12.9402C4.74584 12.0802 4.43925 10.9502 3.57059 10.4402C2.55885 9.8702 2.23182 8.6002 2.81434 7.6102L3.49905 6.4302C4.09178 5.4402 5.35901 5.0902 6.38097 5.6702C7.27007 6.1502 8.42488 5.8302 8.94608 4.9802C9.10959 4.7002 9.20157 4.4002 9.18113 4.1002C9.16069 3.7102 9.27311 3.3402 9.46728 3.0402C9.8454 2.4202 10.5301 2.0202 11.2761 2.0002H12.7171C13.4734 2.0002 14.1581 2.4202 14.5362 3.0402C14.7201 3.3402 14.8428 3.7102 14.8121 4.1002C14.7917 4.4002 14.8837 4.7002 15.0472 4.9802C15.5684 5.8302 16.7232 6.1502 17.6225 5.6702C18.6342 5.0902 19.9117 5.4402 20.4942 6.4302L21.1789 7.6102C21.7716 8.6002 21.4446 9.8702 20.4227 10.4402C19.554 10.9502 19.2474 12.0802 19.7686 12.9402C19.9321 13.2102 20.1161 13.4402 20.4022 13.5802ZM9.10959 12.0102C9.10959 13.5802 10.4075 14.8302 12.012 14.8302C13.6164 14.8302 14.8837 13.5802 14.8837 12.0102C14.8837 10.4402 13.6164 9.1802 12.012 9.1802C10.4075 9.1802 9.10959 10.4402 9.10959 12.0102Z" fill="currentColor"/>
</svg>
