<svg width="24" height="24" viewBox="0 0 24 24" fill="none" xmlns="http://www.w3.org/2000/svg">
<path fill-rule="evenodd" clip-rule="evenodd" d="M20.8067 7.62374L20.1842 6.54364C19.6577 5.62972 18.4907 5.31444 17.5755 5.83884V5.83884C17.1399 6.09547 16.6201 6.16827 16.1307 6.04121C15.6413 5.91414 15.2226 5.59764 14.9668 5.16149C14.8023 4.88427 14.7139 4.56852 14.7105 4.24616V4.24616C14.7254 3.72934 14.5304 3.22852 14.17 2.85779C13.8096 2.48706 13.3145 2.27799 12.7975 2.2782H11.5435C11.037 2.27819 10.5513 2.48004 10.194 2.83907C9.83669 3.1981 9.63717 3.68471 9.63961 4.19124V4.19124C9.6246 5.23705 8.77248 6.07693 7.72657 6.07683C7.40421 6.07348 7.08846 5.98507 6.81123 5.82053V5.82053C5.89606 5.29614 4.72911 5.61142 4.20254 6.52534L3.53435 7.62374C3.00841 8.53652 3.3194 9.70273 4.23 10.2324V10.2324C4.8219 10.5742 5.18653 11.2057 5.18653 11.8892C5.18653 12.5727 4.8219 13.2042 4.23 13.5459V13.5459C3.32056 14.0721 3.00923 15.2355 3.53435 16.1455V16.1455L4.16593 17.2347C4.41265 17.6799 4.8266 18.0084 5.31619 18.1476C5.80578 18.2867 6.33064 18.225 6.77462 17.9761V17.9761C7.21108 17.7215 7.73119 17.6517 8.21934 17.7823C8.70749 17.913 9.12324 18.2332 9.37416 18.6718C9.5387 18.949 9.62711 19.2648 9.63046 19.5871V19.5871C9.63046 20.6437 10.487 21.5002 11.5435 21.5002H12.7975C13.8505 21.5002 14.7055 20.6492 14.7105 19.5963V19.5963C14.7081 19.0882 14.9089 18.6001 15.2682 18.2408C15.6275 17.8816 16.1155 17.6808 16.6236 17.6832C16.9452 17.6918 17.2596 17.7799 17.5389 17.9395V17.9395C18.4517 18.4655 19.6179 18.1545 20.1476 17.2439V17.2439L20.8067 16.1455C21.0618 15.7076 21.1318 15.1861 21.0012 14.6965C20.8706 14.2069 20.5502 13.7895 20.111 13.5368V13.5368C19.6718 13.2841 19.3514 12.8667 19.2208 12.3771C19.0902 11.8874 19.1603 11.3659 19.4154 10.9281C19.5812 10.6385 19.8214 10.3983 20.111 10.2324V10.2324C21.0161 9.70302 21.3264 8.54362 20.8067 7.63289V7.63289V7.62374Z" stroke="currentColor" stroke-width="1.5" stroke-linecap="round" stroke-linejoin="round"/>
<circle cx="12.1751" cy="11.8892" r="2.63616" stroke="currentColor" stroke-width="1.5" stroke-linecap="round" stroke-linejoin="round"/>
</svg>
