<svg width="20" height="20" viewBox="0 0 20 20" fill="none" xmlns="http://www.w3.org/2000/svg">
<path fill-rule="evenodd" clip-rule="evenodd" d="M6.7478 10C6.7478 11.7778 8.20309 13.2243 9.99984 13.2243C11.7885 13.2243 13.2437 11.7778 13.2437 10C13.2437 8.21418 11.7885 6.76772 9.99984 6.76772C8.20309 6.76772 6.7478 8.21418 6.7478 10ZM14.7803 5.03842C16.2031 6.13741 17.4145 7.74549 18.2844 9.75762C18.3494 9.91115 18.3494 10.0889 18.2844 10.2344C16.5446 14.2586 13.447 16.6667 9.99984 16.6667H9.99171C6.55268 16.6667 3.45512 14.2586 1.71528 10.2344C1.65024 10.0889 1.65024 9.91115 1.71528 9.75762C3.45512 5.73337 6.55268 3.33337 9.99171 3.33337H9.99984C11.7234 3.33337 13.3576 3.93135 14.7803 5.03842ZM10.0008 12.0104C11.1146 12.0104 12.0252 11.1053 12.0252 9.99826C12.0252 8.88311 11.1146 7.97806 10.0008 7.97806C9.90325 7.97806 9.80569 7.98614 9.71626 8.0023C9.68374 8.89119 8.95203 9.6023 8.04959 9.6023H8.00894C7.98455 9.7316 7.96829 9.86089 7.96829 9.99826C7.96829 11.1053 8.87886 12.0104 10.0008 12.0104Z" fill="currentColor"/>
</svg>
