<svg width="20" height="20" viewBox="0 0 20 20" fill="none" xmlns="http://www.w3.org/2000/svg">
<path fill-rule="evenodd" clip-rule="evenodd" d="M13.0173 7.83741C13.2677 8.08774 13.2677 8.49362 13.0173 8.74395L9.59853 12.1628C9.3482 12.4131 8.94232 12.4131 8.69199 12.1628L6.98258 10.4534C6.73225 10.203 6.73225 9.79714 6.98258 9.54681C7.23292 9.29647 7.63879 9.29647 7.88913 9.54681L9.14526 10.8029L12.1108 7.83741C12.3611 7.58707 12.767 7.58707 13.0173 7.83741Z" fill="currentColor"/>
<path fill-rule="evenodd" clip-rule="evenodd" d="M9.99996 2.9488C6.10564 2.9488 2.94868 6.10577 2.94868 10.0001C2.94868 13.8944 6.10564 17.0514 9.99996 17.0514C13.8943 17.0514 17.0512 13.8944 17.0512 10.0001C17.0512 6.10577 13.8943 2.9488 9.99996 2.9488ZM1.66663 10.0001C1.66663 5.39771 5.39759 1.66675 9.99996 1.66675C14.6023 1.66675 18.3333 5.39771 18.3333 10.0001C18.3333 14.6025 14.6023 18.3334 9.99996 18.3334C5.39759 18.3334 1.66663 14.6025 1.66663 10.0001Z" fill="currentColor"/>
</svg>
