<svg width="20" height="20" viewBox="0 0 20 20" fill="none" xmlns="http://www.w3.org/2000/svg">
<path d="M10.0001 1.66663C5.40825 1.66663 1.66675 5.40812 1.66675 9.99996C1.66675 14.5918 5.40825 18.3333 10.0001 18.3333C14.5919 18.3333 18.3334 14.5918 18.3334 9.99996C18.3334 5.40812 14.5919 1.66663 10.0001 1.66663ZM12.9763 8.72445L9.57491 12.1258C9.40484 12.2108 9.31981 12.2959 9.14974 12.2959C8.97967 12.2959 8.80961 12.2108 8.72457 12.1258L7.02389 10.4251C6.76879 10.17 6.76879 9.74486 7.02389 9.48976C7.27899 9.23465 7.70416 9.23465 7.95927 9.48976L9.23478 10.7653L12.211 7.78908C12.4661 7.53397 12.8912 7.53397 13.1463 7.78908C13.2314 8.12921 13.2314 8.46935 12.9763 8.72445Z" fill="currentColor"/>
</svg>
