<!-- Generated by IcoMoon.io -->
<svg version="1.1" xmlns="http://www.w3.org/2000/svg" width="1024" height="1024" viewBox="0 0 1024 1024">
<title></title>
<g id="icomoon-ignore">
</g>
<path fill="currentColor" d="M180.342 180.342c12.9-12.9 33.815-12.9 46.714 0l284.944 284.943 284.945-284.943c12.898-12.9 33.813-12.9 46.711 0 12.902 12.9 12.902 33.815 0 46.714l-284.941 284.944 284.941 284.945c12.902 12.898 12.902 33.813 0 46.711-12.898 12.902-33.813 12.902-46.711 0l-284.945-284.941-284.944 284.941c-12.9 12.902-33.815 12.902-46.714 0-12.9-12.898-12.9-33.813 0-46.711l284.943-284.945-284.943-284.944c-12.9-12.9-12.9-33.815 0-46.714z"></path>
</svg>
