<svg width="120" height="120" viewBox="0 0 120 120" fill="none" xmlns="http://www.w3.org/2000/svg">
<path d="M79 19L86 26.5L75 37.5C73 39.5 73 42.5 75 44.5C77 46.5 80 46.5 82 44.5L93 33.5L100.5 40.5C102.5 42.5 105 41 105 39V17.5C105 16 104 15 102.5 15H81C79 15 77.5 17.5 79 19ZM19 40.5L26 33.5L37 44.5C39 46.5 42 46.5 44 44.5C46 42.5 46 39.5 44 37.5L33.5 26.5L40.5 19C42.5 17.5 41 15 39 15H17.5C16 15 15 16 15 17.5V39C15 41 17.5 42.5 19 40.5ZM40.5 100.5L33 93.5L44 82.5C46 80.5 46 77.5 44 75.5C42 73.5 39 73.5 37 75.5L26 86.5L18.5 79.5C17.5 77.5 15 79 15 81V102.5C15 104 16 105 17.5 105H39C41 105 42.5 102.5 40.5 100.5ZM101 79L93.5 86L82.5 75C80.5 73 77.5 73 75.5 75C73.5 77 73.5 80 75.5 82L86.5 93L79.5 100.5C78 102 79 105 81.5 105H103C104.5 105 105.5 104 105.5 102.5V81C105 79 102.5 77.5 101 79Z" fill="currentColor"/>
</svg>
